<svg width="669" height="264" viewBox="0 0 669 264" fill="none" xmlns="http://www.w3.org/2000/svg">
<path d="M203.957 42.0026H222.186C222.708 42.0026 223.209 42.2066 223.583 42.571L324.917 141.434C325.291 141.799 325.792 142.003 326.314 142.003H350.696C350.898 142.003 351.105 142.035 351.297 142.095C405.081 158.671 427.003 122.94 428.5 89.502C431.565 21.0589 364.5 14.5038 338.5 39.0026L303.874 76.0327C303.116 76.8428 301.844 76.8818 301.039 76.1196L285.447 61.3709C284.647 60.614 284.603 59.3599 285.357 58.5572C295.99 47.2437 316.17 25.9508 320 22.5038C330.5 12.0038 344.967 4.12658 353.5 2.50381C424.5 -10.998 454 45.0034 454 80.502C454 182.264 353.728 182.004 318.62 157.27C318.538 157.212 318.464 157.15 318.392 157.081L202.569 45.4426C201.273 44.1937 202.157 42.0026 203.957 42.0026Z" fill="url(#paint0_linear_13573_13100)"/>
<path d="M99.111 101H123.072C123.926 101 124.69 101.561 124.98 102.365C139.207 141.905 170.146 146.483 183 145C202.779 144.035 231.868 114.988 245.116 98.725C245.865 97.8053 247.24 97.7197 248.09 98.5469L263.734 113.768C264.457 114.472 264.509 115.65 263.895 116.45C178.905 227.172 101.842 141.097 97.1838 103.061C97.0444 101.923 97.964 101 99.111 101Z" fill="url(#paint1_linear_13573_13100)"/>
<path d="M125 95V84C125 82.8954 124.105 82 123 82H99C97.8954 82 97 82.8954 97 84V95C97 96.1046 97.8954 97 99 97H123C124.105 97 125 96.1046 125 95Z" fill="#2AC9DC"/>
<path d="M201.671 35.3861C147.327 16.6432 129.705 55.5123 124.849 76.431C124.635 77.3517 123.824 78.0039 122.879 78.0039H99.4842C98.2076 78.0039 97.2688 76.7724 97.5615 75.5299C119.348 -16.9549 206.771 -3.23219 237.5 25.5148C264.617 50.8829 330.758 114.115 346.902 129.557C348.205 130.804 347.321 133 345.518 133H328.299C327.786 133 327.293 132.803 326.921 132.45L226.579 37.0653C226.207 36.712 225.717 36.5161 225.204 36.5098C218.983 36.4339 208.173 35.5352 202.334 35.501C202.11 35.4997 201.883 35.4591 201.671 35.3861Z" fill="url(#paint2_linear_13573_13100)"/>
<path d="M14 0H2C0.895431 0 0 0.895436 0 2.00001V138.585C0 159.725 17.3819 171 30.5357 171H129.069C130.173 171 131.069 170.105 131.069 169V164.666C131.069 163.937 130.671 163.266 130.034 162.912C123.073 159.043 116.406 154.766 108.598 142.919C108.224 142.351 107.589 142 106.908 142H32.9027C31.8368 142 30.9587 141.164 30.9104 140.1C30.7754 137.129 30.5357 131.376 30.5357 128L30 16.5C30 5.97692 22.9258 0 14 0Z" fill="url(#paint3_linear_13573_13100)"/>
<path d="M524 0H440C438.895 0 437.998 0.915778 438.018 2.02015C438.558 30.8433 450.845 27.4548 466 28.5C468.793 28.6926 503 29.1667 524 29.5C541.5 29.5 542.5 38.5 543.5 51.5C545.654 79.5 527.5 76 519.5 76H492H466.5C465.395 76 464.5 76.8954 464.5 78V154.5C465.7 163.7 473 170 477.5 170.5H492C493.105 170.5 494 169.605 494 168.5V107C494 105.895 494.895 105 496 105H525C565 105.5 576.033 74.4791 575 49C573.5 12 545.5 0 524 0Z" fill="url(#paint4_linear_13573_13100)"/>
<path d="M605.5 2.5L587.016 1.14753C585.927 1.06785 585 1.92981 585 3.02163V157.777C585 164.177 593.5 170 599 170L617.529 170.904C618.602 170.956 619.5 170.101 619.5 169.027V15.5C619.5 8.3 612 2.5 605.5 2.5Z" fill="url(#paint5_linear_13573_13100)"/>
<path d="M654.5 2.5L636.016 1.14753C634.927 1.06785 634 1.92981 634 3.02163V157.777C634 164.177 642.5 170 648 170L666.529 170.904C667.602 170.956 668.5 170.101 668.5 169.027V15.5C668.5 8.3 662 2.5 654.5 2.5Z" fill="url(#paint6_linear_13573_13100)"/>
<path d="M34.6102 249V213.446H20.6902V208.4H54.2722V213.446H40.3522V249H34.6102ZM91.9672 225.916H112.847V230.846H91.9672V225.916ZM92.4892 243.954H116.153V249H86.6892V208.4H115.341V213.446H92.4892V243.954ZM169.742 249.464C166.649 249.464 163.787 248.961 161.158 247.956C158.567 246.912 156.305 245.462 154.372 243.606C152.477 241.711 150.989 239.507 149.906 236.994C148.823 234.481 148.282 231.716 148.282 228.7C148.282 225.684 148.823 222.919 149.906 220.406C150.989 217.893 152.497 215.708 154.43 213.852C156.363 211.957 158.625 210.507 161.216 209.502C163.845 208.458 166.707 207.936 169.8 207.936C172.932 207.936 175.813 208.477 178.442 209.56C181.11 210.604 183.372 212.17 185.228 214.258L181.458 217.912C179.911 216.288 178.171 215.089 176.238 214.316C174.305 213.504 172.236 213.098 170.032 213.098C167.751 213.098 165.624 213.485 163.652 214.258C161.719 215.031 160.037 216.114 158.606 217.506C157.175 218.898 156.054 220.561 155.242 222.494C154.469 224.389 154.082 226.457 154.082 228.7C154.082 230.943 154.469 233.031 155.242 234.964C156.054 236.859 157.175 238.502 158.606 239.894C160.037 241.286 161.719 242.369 163.652 243.142C165.624 243.915 167.751 244.302 170.032 244.302C172.236 244.302 174.305 243.915 176.238 243.142C178.171 242.33 179.911 241.093 181.458 239.43L185.228 243.084C183.372 245.172 181.11 246.757 178.442 247.84C175.813 248.923 172.913 249.464 169.742 249.464ZM219.602 249V208.4H224.358L251.212 241.75H248.718V208.4H254.518V249H249.762L222.908 215.65H225.402V249H219.602ZM311.098 249.464C308.005 249.464 305.124 248.942 302.456 247.898C299.827 246.854 297.546 245.404 295.612 243.548C293.679 241.653 292.171 239.449 291.088 236.936C290.006 234.423 289.464 231.677 289.464 228.7C289.464 225.723 290.006 222.977 291.088 220.464C292.171 217.951 293.679 215.766 295.612 213.91C297.546 212.015 299.827 210.546 302.456 209.502C305.086 208.458 307.966 207.936 311.098 207.936C314.192 207.936 317.034 208.458 319.624 209.502C322.254 210.507 324.535 211.957 326.468 213.852C328.44 215.708 329.948 217.893 330.992 220.406C332.075 222.919 332.616 225.684 332.616 228.7C332.616 231.716 332.075 234.481 330.992 236.994C329.948 239.507 328.44 241.711 326.468 243.606C324.535 245.462 322.254 246.912 319.624 247.956C317.034 248.961 314.192 249.464 311.098 249.464ZM311.098 244.302C313.341 244.302 315.41 243.915 317.304 243.142C319.238 242.369 320.9 241.286 322.292 239.894C323.723 238.463 324.825 236.801 325.598 234.906C326.41 233.011 326.816 230.943 326.816 228.7C326.816 226.457 326.41 224.389 325.598 222.494C324.825 220.599 323.723 218.956 322.292 217.564C320.9 216.133 319.238 215.031 317.304 214.258C315.41 213.485 313.341 213.098 311.098 213.098C308.817 213.098 306.71 213.485 304.776 214.258C302.882 215.031 301.219 216.133 299.788 217.564C298.358 218.956 297.236 220.599 296.424 222.494C295.651 224.389 295.264 226.457 295.264 228.7C295.264 230.943 295.651 233.011 296.424 234.906C297.236 236.801 298.358 238.463 299.788 239.894C301.219 241.286 302.882 242.369 304.776 243.142C306.71 243.915 308.817 244.302 311.098 244.302ZM367.581 249V208.4H373.381V243.954H395.363V249H367.581ZM445.711 249.464C442.617 249.464 439.737 248.942 437.069 247.898C434.439 246.854 432.158 245.404 430.225 243.548C428.291 241.653 426.783 239.449 425.701 236.936C424.618 234.423 424.077 231.677 424.077 228.7C424.077 225.723 424.618 222.977 425.701 220.464C426.783 217.951 428.291 215.766 430.225 213.91C432.158 212.015 434.439 210.546 437.069 209.502C439.698 208.458 442.579 207.936 445.711 207.936C448.804 207.936 451.646 208.458 454.237 209.502C456.866 210.507 459.147 211.957 461.081 213.852C463.053 215.708 464.561 217.893 465.605 220.406C466.687 222.919 467.229 225.684 467.229 228.7C467.229 231.716 466.687 234.481 465.605 236.994C464.561 239.507 463.053 241.711 461.081 243.606C459.147 245.462 456.866 246.912 454.237 247.956C451.646 248.961 448.804 249.464 445.711 249.464ZM445.711 244.302C447.953 244.302 450.022 243.915 451.917 243.142C453.85 242.369 455.513 241.286 456.905 239.894C458.335 238.463 459.437 236.801 460.211 234.906C461.023 233.011 461.429 230.943 461.429 228.7C461.429 226.457 461.023 224.389 460.211 222.494C459.437 220.599 458.335 218.956 456.905 217.564C455.513 216.133 453.85 215.031 451.917 214.258C450.022 213.485 447.953 213.098 445.711 213.098C443.429 213.098 441.322 213.485 439.389 214.258C437.494 215.031 435.831 216.133 434.401 217.564C432.97 218.956 431.849 220.599 431.037 222.494C430.263 224.389 429.877 226.457 429.877 228.7C429.877 230.943 430.263 233.011 431.037 234.906C431.849 236.801 432.97 238.463 434.401 239.894C435.831 241.286 437.494 242.369 439.389 243.142C441.322 243.915 443.429 244.302 445.711 244.302ZM520.522 249.464C517.39 249.464 514.509 248.961 511.88 247.956C509.25 246.912 506.969 245.462 505.036 243.606C503.102 241.711 501.594 239.507 500.512 236.994C499.429 234.481 498.888 231.716 498.888 228.7C498.888 225.684 499.429 222.919 500.512 220.406C501.594 217.893 503.102 215.708 505.036 213.852C507.008 211.957 509.308 210.507 511.938 209.502C514.567 208.458 517.467 207.936 520.638 207.936C523.847 207.936 526.786 208.458 529.454 209.502C532.122 210.546 534.384 212.112 536.24 214.2L532.644 217.796C530.981 216.172 529.164 214.993 527.192 214.258C525.258 213.485 523.151 213.098 520.87 213.098C518.55 213.098 516.384 213.485 514.374 214.258C512.402 215.031 510.681 216.114 509.212 217.506C507.781 218.898 506.66 220.561 505.848 222.494C505.074 224.389 504.688 226.457 504.688 228.7C504.688 230.904 505.074 232.973 505.848 234.906C506.66 236.801 507.781 238.463 509.212 239.894C510.681 241.286 512.402 242.369 514.374 243.142C516.346 243.915 518.492 244.302 520.812 244.302C522.977 244.302 525.046 243.973 527.018 243.316C529.028 242.62 530.884 241.479 532.586 239.894L535.892 244.302C533.881 246.003 531.522 247.299 528.816 248.188C526.148 249.039 523.383 249.464 520.522 249.464ZM530.324 243.548V228.468H535.892V244.302L530.324 243.548ZM573.096 249V208.4H578.896V249H573.096ZM611.003 249L629.389 208.4H635.131L653.575 249H647.485L631.071 211.648H633.391L616.977 249H611.003ZM618.833 238.85L620.399 234.21H643.251L644.933 238.85H618.833Z" fill="white"/>
<defs>
<linearGradient id="paint0_linear_13573_13100" x1="187" y1="62.002" x2="894.5" y2="200.002" gradientUnits="userSpaceOnUse">
<stop stop-color="#2AC9DC"/>
<stop offset="1" stop-color="#2657F0"/>
</linearGradient>
<linearGradient id="paint1_linear_13573_13100" x1="265" y1="171" x2="27.5" y2="59" gradientUnits="userSpaceOnUse">
<stop stop-color="#29AAE9"/>
<stop offset="1" stop-color="#2EDFD4"/>
</linearGradient>
<linearGradient id="paint2_linear_13573_13100" x1="90.5" y1="77" x2="735" y2="133" gradientUnits="userSpaceOnUse">
<stop stop-color="#2AC9DC"/>
<stop offset="1" stop-color="#2559F0"/>
</linearGradient>
<linearGradient id="paint3_linear_13573_13100" x1="-73.5" y1="-51" x2="119" y2="233" gradientUnits="userSpaceOnUse">
<stop stop-color="#2EDFD4"/>
<stop offset="1" stop-color="#29AAE9"/>
</linearGradient>
<linearGradient id="paint4_linear_13573_13100" x1="411" y1="17.5" x2="627" y2="111.5" gradientUnits="userSpaceOnUse">
<stop stop-color="#2AC9DC"/>
<stop offset="1" stop-color="#2657F0"/>
</linearGradient>
<linearGradient id="paint5_linear_13573_13100" x1="555" y1="0.999999" x2="633.5" y2="149" gradientUnits="userSpaceOnUse">
<stop stop-color="#2AC9DC"/>
<stop offset="1" stop-color="#2559F0"/>
</linearGradient>
<linearGradient id="paint6_linear_13573_13100" x1="557" y1="-25" x2="685" y2="155" gradientUnits="userSpaceOnUse">
<stop stop-color="#2AC9DC"/>
<stop offset="1" stop-color="#2559F0"/>
</linearGradient>
</defs>
</svg>
